<svg width="95" height="85" viewBox="0 0 95 85" fill="none" xmlns="http://www.w3.org/2000/svg">
<g clip-path="url(#clip0)">
<path d="M25.92 12.18C16.73 27.27 8.93998 43.22 2.69998 59.76C1.25998 63.57 -0.120022 67.53 0.00997828 71.6C0.139978 75.67 2.08998 79.94 5.75998 81.7C7.83998 82.7 10.22 82.81 12.52 82.87C33.91 83.39 55.37 80.66 75.94 74.79C84.25 72.42 93.9 67.69 94.34 59.06C94.64 53.13 90.28 48.16 87.59 42.86C83.21 34.23 83.03 23.67 77.37 15.82C72.25 8.71003 65.61 1.29003 56.89 0.530032C51.74 0.0800323 46.1 -0.519968 40.41 0.810032C34.16 2.26003 28.91 6.50003 25.92 12.18Z" fill="#F7BC28"/>
<path d="M32.5002 13.81C28.7302 24.65 27.1802 36.43 28.0002 48.01C28.4002 53.59 29.4102 59.33 32.4002 63.86C36.2302 69.67 43.1002 72.68 49.5702 71.88C56.0402 71.08 61.9602 66.71 65.5402 60.7C70.7702 51.93 71.0002 40.7 70.3002 30.22C69.6702 20.9 67.5902 10.23 60.0702 5.95003C54.1602 2.59003 47.0202 4.49003 40.6102 6.46003L32.5002 13.81Z" fill="#FFC9A0"/>
<path d="M23.4102 36.61C32.3102 36.65 42.4902 32.58 44.7302 30.45C51.4802 24 52.1602 10.65 51.9602 1.78003L30.8102 9.36003L23.5602 22.98L23.4102 36.61Z" fill="#F7BC28"/>
<path d="M47.1699 1.77002C47.1699 1.77002 56.1799 27.42 75.1099 31.1L72.1299 20.06L64.6299 5.68002L47.1699 1.77002Z" fill="#F7BC28"/>
<path d="M58.1199 29.53C57.6199 29.45 57.1299 29.71 56.9099 30.17C56.8599 30.28 56.7999 30.39 56.7599 30.51C56.6199 30.89 56.6299 31.4 56.9899 31.59C57.1299 31.67 57.2999 31.67 57.4599 31.67C59.1399 31.7 60.8099 31.93 62.4499 32.32C63.2799 32.52 64.0999 32.76 64.9099 33.05C65.1099 33.12 65.8599 33.54 66.0399 33.47C66.3799 33.35 66.2099 32.74 66.0699 32.52C65.8799 32.23 65.5699 32.04 65.2799 31.86L65.1999 31.81C63.5499 30.8 61.7099 30.11 59.7999 29.81L58.1199 29.53Z" fill="#F7BC28"/>
<path d="M42.5602 4.96008C35.9902 4.97008 29.2402 15.5101 26.9202 20.8001C24.3302 26.7101 19.7502 33.0401 16.6002 38.6601C13.5202 44.1601 10.4602 49.7101 8.12018 55.5801C6.96018 58.4801 5.99018 61.4601 5.31018 64.5101C4.70018 67.2101 4.82018 67.8601 4.46018 70.6501C4.05018 73.8201 4.18018 77.5301 7.36018 78.1201C10.4802 78.7001 16.2202 78.5601 19.3402 78.9701C19.9202 79.0501 20.1802 78.1501 19.5902 78.0701C15.0702 77.4601 7.59018 79.4001 5.80018 73.6001C4.98018 70.9401 5.52018 68.0101 6.09018 65.3601C6.70018 62.5001 12.8202 51.6001 13.8502 48.8701C18.0802 37.7001 21.2402 35.8601 26.3402 25.1001C29.1902 19.0901 32.2702 12.1801 37.6602 8.00008C38.5002 7.34008 39.4302 6.79008 40.4502 6.48008C41.3202 6.22008 42.6902 5.88008 43.4402 5.68008C44.3902 5.41008 44.1702 4.96008 42.5602 4.96008Z" fill="white"/>
<path d="M33.05 76.8101C32.9 76.8101 32.76 76.8001 32.61 76.7901C29.71 76.5101 25.08 75.7401 22.47 74.6701C20.12 73.7101 17.54 72.3401 16.21 70.0901C13.92 66.2401 14.3 60.1901 17.37 56.8501C17.77 56.4101 17.92 55.3401 17.51 55.7801C14.86 58.6701 13.45 61.8401 13.92 65.6401C14.24 68.1901 14.13 70.6901 15.5 72.0001C17.18 73.6101 20.61 74.9601 22.76 75.7901C25.37 76.7901 28.87 77.1501 31.64 77.4001C32.23 77.4601 35.06 77.4001 34.69 76.8201H33.05V76.8101Z" fill="white"/>
<path d="M23.2603 50.3601C21.8903 54.0901 20.3503 60.2301 21.2203 63.2801C21.7303 65.0501 25.1003 67.7301 27.7903 69.9701C28.2503 70.3501 29.2503 70.6301 28.7903 70.2401C26.2303 68.1101 23.3903 65.7401 22.5003 62.3801C21.4903 58.5901 22.5703 53.6101 23.8903 50.0401C24.0903 49.4801 23.4703 49.8001 23.2603 50.3601Z" fill="white"/>
<path d="M25.9904 32.7201C29.3204 32.2301 32.4604 31.0201 35.5204 29.6601C38.3504 28.4101 42.8904 26.3001 45.1604 24.1401C47.4104 21.9801 47.9004 18.2801 48.9104 15.3701C50.0104 12.2301 49.8304 10.4801 49.8504 7.16007C49.8504 6.56007 49.1904 4.95007 49.1904 5.55007C49.1904 14.9001 47.1704 20.2601 42.5904 24.4501C40.4204 26.4301 37.7004 27.6901 35.0404 28.8601C32.0504 30.1801 28.9804 31.3501 25.7304 31.8201C25.1504 31.9101 25.4004 32.8101 25.9904 32.7201Z" fill="white"/>
<path d="M32.2003 22.66C32.9903 19.72 36.6403 16.76 38.7403 14.52C41.0303 12.09 41.5303 11.27 44.3103 9.45003C44.8103 9.12003 45.2903 7.64003 44.7903 7.97003C41.8103 9.92003 37.9703 12.85 35.5803 15.49C33.4503 17.84 32.1003 20.33 31.9103 21.86C31.8403 22.45 31.5303 24.01 31.9003 24.15L32.2003 22.66Z" fill="white"/>
<path d="M39.8203 19.8001C42.7403 16.1001 46.0503 11.5201 45.5503 8.50009C45.4503 7.92009 44.7403 7.66009 44.6503 8.25009C44.0003 12.9001 40.9503 17.5401 38.1303 21.1301C37.7603 21.5901 38.5303 21.4401 38.9003 20.9701L39.8203 19.8001Z" fill="white"/>
<path d="M77.22 31.2201C66.72 28.4201 58.31 19.5001 56.12 8.86006C55.97 9.06006 55.82 9.25006 55.67 9.45006C62.34 8.84006 68.2 13.0501 72.02 18.1901C76.41 24.1001 78.21 31.4301 80.6 38.2701C81.84 41.8101 83.37 45.1501 85.04 48.5101C86.68 51.8101 88.37 55.4201 87.93 59.2001C87.2 65.5201 80.86 69.1201 75.45 71.0501C67.13 74.0201 58.1 75.34 49.29 75.4201C48.69 75.4301 47.31 76.8201 47.9 76.8201C56.33 76.7401 63.65 75.7501 71.69 73.2001C77.21 71.4501 86.63 67.0901 88.81 61.3101C90.1 57.9001 90.24 54.9001 88.89 51.6301C87.37 47.9301 83.89 44.4201 82.45 40.6801C79.67 33.4401 76.44 22.6801 74.81 20.0701C69.92 12.1901 63.23 7.83006 55.68 8.52006C55.37 8.55006 55.17 8.79006 55.23 9.11006C58.4 24.3501 66.18 29.2401 76.98 32.1101C77.56 32.2701 77.8 31.3801 77.22 31.2201Z" fill="white"/>
<path d="M47.75 72.39C54.31 72.94 64.89 72.33 71.16 70.01C76.24 68.13 77.37 65.35 79.61 60.27C80.86 57.43 81.73 57.7 79.55 51.31C79.36 50.74 78.39 50.55 78.7 51.06C81.69 56.06 77.81 62.85 73.93 66.05C69.56 69.66 63.93 71.26 58.36 71.67C54.83 71.93 51.28 71.76 47.76 71.46C47.15 71.41 47.15 72.34 47.75 72.39Z" fill="white"/>
<path d="M83.2801 62.1401C85.9701 58.6301 84.9801 56.2401 84.0101 52.0401C82.8701 47.1201 79.9401 42.8401 77.2501 38.6601C76.9301 38.1601 76.1201 38.6201 76.4501 39.1301C79.0101 43.1001 81.7601 47.1101 82.9801 51.7301C84.0701 55.8601 84.3501 59.2401 82.0001 63.4901C81.7101 64.0101 81.5501 64.9101 81.9101 64.4401L83.2801 62.1401Z" fill="white"/>
<path d="M64.5004 65.0501C68.6404 63.8501 72.3504 58.6101 74.0304 54.7101C76.0804 49.9201 73.7004 47.0901 72.5504 42.1201C72.4104 41.5401 71.5204 41.7801 71.6504 42.3701C72.7404 47.0601 73.0504 52.1501 71.2004 56.6901C69.6704 60.4401 66.3804 62.9601 62.6904 64.7901C62.3404 64.9601 61.6304 65.7101 61.6304 65.7101L64.5004 65.0501Z" fill="white"/>
<path d="M62.7401 16.6401C64.3801 17.3701 66.2401 18.7201 67.6501 20.1801C69.1101 21.7001 72.4401 25.6901 73.6801 27.3901C76.0801 30.7101 76.0501 31.9701 77.5001 35.8001C77.7101 36.3501 78.6101 36.1101 78.4001 35.5501C76.8501 31.4401 74.7601 27.5601 72.1401 24.0401C70.8701 22.3301 70.9501 21.5801 69.4501 20.0601C68.0101 18.6001 66.1101 17.0601 64.1001 16.4701C63.5201 16.3001 62.1601 16.4701 62.7401 16.6401Z" fill="white"/>
<path d="M29.6502 36.0601C25.6802 36.7101 24.2502 36.6601 20.6102 38.5001C18.0002 39.8201 15.2502 41.7401 14.8302 44.6401C14.2902 48.3701 18.0202 51.4701 21.7202 52.1901C25.4202 52.9101 29.2402 52.1001 33.0002 52.4001" fill="#FFC9A0"/>
<path d="M69.25 30.11C72.61 29.77 76.03 30.22 79.19 31.41C82.35 32.6 85.03 35.8 84.46 39.12C83.84 42.7 80.04 44.69 76.62 45.9C73.41 47.03 70.12 47.94 66.79 48.62" fill="#FFC9A0"/>
<path d="M40.8701 70.3901L43.6001 84.6401H51.9601L54.9801 66.1901L40.8701 70.3901Z" fill="#FFC9A0"/>
<path d="M32.6899 57.94C32.5699 58.05 32.3899 58.05 32.2699 57.94C31.3199 57.1 30.2099 56.45 29.2199 55.65C28.1599 54.79 27.1999 53.69 26.9599 52.35C26.5099 49.83 29.0899 48.12 31.1799 49.74C31.7699 50.19 32.2299 50.79 32.6599 51.4C32.6999 51.46 32.8099 51.43 32.7999 51.35C32.7199 50.65 32.9799 49.91 33.4399 49.37C34.2299 48.42 35.9099 47.61 37.1799 47.85C38.9699 48.18 38.9299 50.25 38.4399 51.61C37.8499 53.25 36.1599 54.7 34.9199 55.85L32.6899 57.94Z" fill="#F1673C"/>
<path d="M65.5398 56.41C65.4098 56.51 65.2298 56.48 65.1298 56.36C64.2798 55.42 63.2598 54.65 62.3698 53.74C61.4098 52.77 60.5898 51.56 60.4998 50.2C60.3398 47.64 63.0998 46.25 64.9998 48.09C65.5298 48.61 65.9198 49.25 66.2798 49.91C66.3198 49.98 66.4198 49.95 66.4198 49.88C66.4198 49.17 66.7698 48.47 67.2898 47.98C68.1898 47.13 69.9398 46.52 71.1798 46.9C72.9198 47.44 72.6398 49.48 71.9998 50.78C71.2198 52.34 69.3798 53.58 68.0198 54.59L65.5398 56.41Z" fill="#F1673C"/>
<path d="M53.84 61.2701C57.03 59.9301 59.53 57.3501 60.74 54.1101C60.86 53.7801 60.6 53.4001 60.29 53.3101C59.93 53.2101 59.61 53.4301 59.49 53.7601C58.46 56.5301 56.23 58.8701 53.5 60.0101C53.18 60.1501 52.94 60.4401 53.05 60.8101C53.12 61.1201 53.51 61.4101 53.84 61.2701Z" fill="#010101"/>
<path d="M54.3603 37.9601C54.9203 40.3401 57.1803 42.3601 59.7303 41.7801C62.0903 41.2401 63.1203 38.7301 63.8003 36.6701C63.4803 36.8001 63.1603 36.9301 62.8503 37.0601C64.3903 37.8501 65.9303 38.6301 67.4703 39.4201C68.2103 39.8001 68.8703 38.6801 68.1303 38.3001C66.5903 37.5101 65.0503 36.7301 63.5103 35.9401C63.1203 35.7401 62.6903 35.9101 62.5603 36.3301C62.0603 37.8401 61.3803 39.8501 59.7203 40.4401C57.7603 41.1401 56.0503 39.4001 55.6303 37.6201C55.4203 36.8001 54.1603 37.1501 54.3603 37.9601Z" fill="#010101"/>
<path d="M61.8901 39.5C61.9501 39.54 62.0001 39.58 62.0501 39.62C62.1401 39.69 62.0701 39.64 62.0201 39.6C62.0601 39.63 62.0901 39.66 62.1301 39.69C62.2601 39.8 62.4001 39.9 62.5301 40.01C62.8401 40.26 63.1401 40.52 63.4501 40.77C64.0301 41.25 64.6001 41.74 65.2101 42.18C65.4901 42.38 65.9501 42.24 66.1001 41.95C66.2801 41.61 66.1601 41.27 65.8701 41.06C65.8101 41.02 65.7601 40.98 65.7101 40.94C65.6201 40.87 65.6901 40.92 65.7401 40.96C65.7001 40.93 65.6701 40.9 65.6301 40.87C65.5001 40.76 65.3601 40.66 65.2301 40.55C64.9201 40.3 64.6201 40.04 64.3101 39.79C63.7301 39.31 63.1601 38.82 62.5501 38.38C62.2701 38.18 61.8101 38.32 61.6601 38.61C61.4801 38.94 61.6001 39.28 61.8901 39.5Z" fill="#010101"/>
<path d="M42.97 39.6301C42.55 41.4101 40.84 43.1501 38.88 42.4501C37.22 41.8601 36.54 39.8501 36.04 38.3401C35.9 37.9301 35.47 37.7501 35.09 37.9501C33.55 38.7401 32.01 39.5201 30.47 40.3101C29.72 40.6901 30.38 41.8101 31.13 41.4301C32.67 40.6401 34.21 39.8601 35.75 39.0701C35.43 38.9401 35.11 38.8101 34.8 38.6801C35.48 40.7401 36.51 43.2401 38.87 43.7901C41.42 44.3801 43.68 42.3501 44.24 39.9701C44.42 39.1701 43.16 38.8201 42.97 39.6301Z" fill="#010101"/>
<path d="M36.0301 40.3901C35.4201 40.8301 34.8501 41.3201 34.2701 41.8001C33.9601 42.0501 33.6601 42.3101 33.3501 42.5601C33.2201 42.6701 33.0901 42.7701 32.9501 42.8801C32.9201 42.9101 32.8901 42.9301 32.8501 42.9601C32.8101 42.9901 32.9901 42.8601 32.8601 42.9501C32.8101 42.9901 32.7501 43.0301 32.7001 43.0701C32.4301 43.2701 32.2601 43.6401 32.4701 43.9601C32.6501 44.2301 33.0701 44.4101 33.3601 44.1901C33.9701 43.7501 34.5401 43.2601 35.1201 42.7801C35.4301 42.5301 35.7301 42.2701 36.0401 42.0201C36.1701 41.9101 36.3001 41.8101 36.4401 41.7001C36.4701 41.6701 36.5001 41.6501 36.5401 41.6201C36.5801 41.5901 36.4001 41.7201 36.5301 41.6301C36.5801 41.5901 36.6401 41.5501 36.6901 41.5101C36.9601 41.3101 37.1301 40.9401 36.9201 40.6201C36.7501 40.3501 36.3301 40.1801 36.0301 40.3901Z" fill="#010101"/>
<path d="M73.5802 34.78C74.7602 34.6 76.0202 34.82 77.1702 35.11C78.3102 35.4 79.4802 35.77 80.1502 36.82C80.5002 37.37 80.6302 37.98 80.4002 38.61C80.1902 39.19 79.8002 39.74 79.3802 40.19C78.6402 40.97 77.6802 41.48 76.7102 41.89C75.5502 42.38 74.3402 42.75 73.1902 43.26C72.6402 43.5 73.1202 44.3 73.6602 44.0601C75.9402 43.05 78.6402 42.57 80.3102 40.55C81.2402 39.43 81.8202 38.06 81.1402 36.66C80.5102 35.38 79.2902 34.75 77.9802 34.36C76.5002 33.92 74.8902 33.65 73.3502 33.88C72.7402 33.97 72.9902 34.87 73.5802 34.78Z" fill="#010101"/>
<path d="M74.4002 40.12C74.7602 40.05 75.1202 39.88 75.4402 39.72C75.8902 39.51 76.3202 39.25 76.7102 38.94C77.0602 38.66 77.3902 38.28 77.4202 37.82C77.4502 37.21 76.8902 36.85 76.3902 36.64C75.6802 36.35 74.8902 36.3 74.1302 36.23C73.8902 36.21 73.6602 36.46 73.6702 36.69C73.6802 36.96 73.8702 37.13 74.1302 37.15C74.2602 37.16 74.3902 37.17 74.5202 37.18C74.6002 37.19 74.6702 37.19 74.7502 37.2C74.7802 37.2 74.8102 37.21 74.8302 37.21C74.8502 37.21 74.9902 37.23 74.9402 37.22C74.8702 37.21 75.0102 37.23 75.0102 37.23C75.0502 37.24 75.1002 37.24 75.1402 37.25C75.2102 37.26 75.2902 37.27 75.3602 37.29C75.5202 37.32 75.6702 37.36 75.8302 37.4C75.9002 37.42 75.9602 37.44 76.0302 37.47C76.0602 37.48 76.0802 37.49 76.1102 37.5C76.0102 37.46 76.1302 37.51 76.1502 37.52C76.2102 37.55 76.2702 37.58 76.3202 37.61C76.3502 37.63 76.3702 37.64 76.4002 37.66C76.5102 37.73 76.3602 37.62 76.4102 37.67C76.4402 37.7 76.4702 37.73 76.4902 37.75C76.5502 37.8 76.4302 37.65 76.4702 37.72C76.4802 37.73 76.4802 37.74 76.4902 37.75C76.5502 37.84 76.4602 37.64 76.4902 37.74C76.5302 37.87 76.4802 37.64 76.4902 37.74C76.4902 37.75 76.4802 37.79 76.4902 37.79C76.4802 37.78 76.5202 37.67 76.5002 37.72C76.4902 37.75 76.4802 37.78 76.4702 37.81C76.4502 37.89 76.5302 37.7 76.4902 37.77C76.4802 37.78 76.4702 37.8 76.4702 37.82C76.4502 37.86 76.4302 37.89 76.4102 37.92C76.3602 37.99 76.4902 37.83 76.4302 37.9C76.4202 37.91 76.4002 37.93 76.3902 37.95C76.3602 37.98 76.3302 38.01 76.3002 38.04C76.2302 38.11 76.1502 38.18 76.0702 38.25C76.0502 38.27 76.0102 38.31 76.1002 38.23C76.0802 38.25 76.0502 38.27 76.0302 38.28C75.9902 38.31 75.9502 38.34 75.9102 38.37C75.8202 38.43 75.7202 38.49 75.6302 38.55C75.4502 38.66 75.2602 38.76 75.0702 38.85C74.9702 38.9 74.8702 38.95 74.7602 38.99C74.7502 39 74.7302 39.01 74.7102 39.01C74.8502 38.97 74.7402 39 74.7002 39.01C74.6602 39.03 74.6102 39.05 74.5702 39.06C74.4402 39.11 74.3002 39.16 74.1702 39.19C73.9302 39.24 73.7702 39.54 73.8502 39.76C73.9102 40.06 74.1502 40.17 74.4002 40.12Z" fill="#010101"/>
<path d="M25.8701 48.7601C24.2501 48.9601 22.6201 48.8301 21.0501 48.3501C19.9301 48.0101 17.7501 47.3301 18.0501 45.7901C18.1901 45.0701 18.7101 44.4601 19.2101 43.9601C19.7201 43.4501 20.2701 42.9801 20.8701 42.5801C22.1001 41.7401 23.4701 41.1601 24.9201 40.8401C25.5001 40.7101 25.2601 39.8201 24.6701 39.9401C22.1401 40.5001 19.5901 41.8901 17.9701 43.9401C17.1901 44.9301 16.6901 46.2901 17.5201 47.4101C18.2801 48.4401 19.7601 48.9401 20.9401 49.2901C22.5301 49.7601 24.2101 49.8901 25.8501 49.6901C26.4601 49.6201 26.4701 48.6901 25.8701 48.7601Z" fill="#010101"/>
<path d="M23.9503 42.79C23.3203 42.86 22.7203 43.03 22.1503 43.3C21.6303 43.55 21.0903 43.9 20.7303 44.36C20.3203 44.87 20.2503 45.5 20.5403 46.09C20.7903 46.61 21.2803 46.99 21.8303 47.16C22.5503 47.39 23.3203 47.27 24.0503 47.16C24.3003 47.12 24.4403 46.81 24.3703 46.59C24.3003 46.32 24.0503 46.23 23.8003 46.27C23.2003 46.36 22.5403 46.46 21.9603 46.23C22.0103 46.25 21.8603 46.18 21.8503 46.17C21.7903 46.14 21.7403 46.1 21.6803 46.06C21.7103 46.08 21.7003 46.07 21.6603 46.04C21.6403 46.02 21.6103 45.99 21.5903 45.97C21.5803 45.96 21.4703 45.84 21.5003 45.88C21.4603 45.83 21.4303 45.77 21.3903 45.72C21.3703 45.69 21.3603 45.66 21.3503 45.63C21.3603 45.67 21.3603 45.66 21.3403 45.61C21.3203 45.55 21.3003 45.49 21.2903 45.43C21.3003 45.51 21.2903 45.34 21.2903 45.32C21.2903 45.26 21.2903 45.26 21.2903 45.3C21.3003 45.27 21.3003 45.24 21.3103 45.21C21.3203 45.16 21.3303 45.14 21.3703 45.08C21.4303 44.97 21.5103 44.89 21.6103 44.79C21.8203 44.59 22.0603 44.43 22.3103 44.29C22.8103 44 23.4003 43.8 23.9603 43.74C24.2103 43.71 24.4203 43.55 24.4203 43.28C24.4103 43.03 24.2003 42.77 23.9503 42.79Z" fill="#010101"/>
<path d="M49.5897 44.3701C50.3997 46.4501 51.3197 48.5301 51.9797 50.6101C52.1397 51.1201 51.7497 51.6301 51.2197 51.6401C50.2797 51.6501 49.1697 51.6601 48.2497 51.6601C47.7797 51.6601 47.4097 51.2601 47.4497 50.7801L48.0497 44.5701C48.1297 43.7301 49.2797 43.5801 49.5897 44.3701Z" fill="#E48929"/>
<path d="M54.2499 70.64C54.2499 70.64 47.6999 73.27 40.8599 70.39L41.3799 73.09L53.1399 77.4L54.2499 70.64Z" fill="#EFB086"/>
<path d="M49.8097 6.84C53.1297 6.75 56.1197 5.54 59.4097 6.1C61.6897 6.49 64.3697 7.67 66.2297 8.95C70.0797 11.6 72.9997 14.39 76.0097 18C76.4197 18.5 80.2997 24.32 77.0597 17.96C74.8497 13.64 69.6697 10.52 65.6797 7.79C63.7797 6.49 61.9697 5.52 59.6697 5.13C56.2897 4.55 49.1097 4.08 49.1397 4.72C49.1897 5.54 49.1897 6.28 49.1897 6.28L49.8097 6.84Z" fill="white"/>
</g>
<defs>
<clipPath id="clip0">
<rect width="94.35" height="84.64" fill="white"/>
</clipPath>
</defs>
</svg>
