<svg width="66" height="80" viewBox="0 0 66 80" fill="none" xmlns="http://www.w3.org/2000/svg">
<g clip-path="url(#clip0)">
<path d="M56.7665 80.0001H9.23355C4.13276 80.0001 0 75.8422 0 70.7103V14.1471C0 9.01525 4.13276 4.8573 9.23355 4.8573H56.7665C61.8672 4.8573 66 9.01525 66 14.1471V70.7103C66 75.8422 61.8672 80.0001 56.7665 80.0001Z" fill="#F7BC28"/>
<path d="M55.5254 29.368H10.4746C8.32754 29.368 6.57764 27.6074 6.57764 25.4473V14.5342C6.57764 12.3741 8.32754 10.6135 10.4746 10.6135H55.5254C57.6724 10.6135 59.4223 12.3741 59.4223 14.5342V25.4473C59.4223 27.6074 57.6724 29.368 55.5254 29.368Z" fill="#E48929"/>
<path d="M55.5254 51.0068H10.4747C8.6627 51.0068 7.19824 49.5334 7.19824 47.7104V36.7974C7.19824 34.9744 8.6627 33.501 10.4747 33.501H55.5254C57.3374 33.501 58.8019 34.9744 58.8019 36.7974V47.7104C58.8019 49.5334 57.3374 51.0068 55.5254 51.0068Z" fill="#E48929"/>
<path d="M55.5254 73.8943H10.4746C8.32754 73.8943 6.57764 72.1337 6.57764 69.9736V59.0605C6.57764 56.9003 8.32754 55.1398 10.4746 55.1398H55.5254C57.6724 55.1398 59.4223 56.9003 59.4223 59.0605V69.9736C59.4223 72.1337 57.6724 73.8943 55.5254 73.8943Z" fill="#E48929"/>
<path d="M33.3476 45.5752C35.1709 45.5752 36.6489 44.0882 36.6489 42.2539C36.6489 40.4195 35.1709 38.9325 33.3476 38.9325C31.5244 38.9325 30.0464 40.4195 30.0464 42.2539C30.0464 44.0882 31.5244 45.5752 33.3476 45.5752Z" fill="#F7BC28"/>
<path d="M33.3476 67.8384C35.1709 67.8384 36.6489 66.3514 36.6489 64.517C36.6489 62.6827 35.1709 61.1957 33.3476 61.1957C31.5244 61.1957 30.0464 62.6827 30.0464 64.517C30.0464 66.3514 31.5244 67.8384 33.3476 67.8384Z" fill="#F7BC28"/>
<path d="M10.2635 5.86858C11.9017 14.9836 12.9442 24.4483 14.6817 33.5009H47.4335C44.7528 17.6432 43.3628 11.9245 41.8238 1.74809C41.6501 0.649291 40.6448 -0.124863 39.5527 0.0124871L12.0134 3.45872C10.8468 3.60855 10.0525 4.70735 10.2635 5.86858Z" fill="#FBFAF7"/>
<path d="M18.5415 13.6226C24.7344 13.8349 30.915 13.5602 37.0707 12.7985C38.0511 12.6736 38.0635 11.1128 37.0707 11.2377C30.9274 11.9994 24.7344 12.2741 18.5415 12.0618C17.5487 12.0368 17.5487 13.5976 18.5415 13.6226Z" fill="#194429"/>
<path d="M19.7827 19.8658C25.9757 20.078 32.1562 19.8033 38.3119 19.0417C39.2923 18.9168 39.3047 17.356 38.3119 17.4809C32.1686 18.2425 25.9757 18.5172 19.7827 18.305C18.7899 18.28 18.7899 19.8408 19.7827 19.8658Z" fill="#194429"/>
<path d="M21.0234 26.109C27.2164 26.3213 33.3969 26.0466 39.5526 25.2849C40.533 25.1601 40.5455 23.5993 39.5526 23.7241C33.4093 24.4858 27.2164 24.7605 21.0234 24.5482C20.0306 24.5233 20.0306 26.0841 21.0234 26.109Z" fill="#194429"/>
</g>
<defs>
<clipPath id="clip0">
<rect width="66" height="80" fill="white"/>
</clipPath>
</defs>
</svg>
