<svg width="79" height="95" viewBox="0 0 79 95" fill="none" xmlns="http://www.w3.org/2000/svg">
<g clip-path="url(#clip0)">
<path d="M5.86874 18.3521C2.48883 20.2676 0.335389 23.7724 0.178515 27.6389C-0.35628 40.7144 -0.862553 68.348 17.5558 82.3741L33.343 92.8245C36.9439 95.2083 41.6002 95.3289 45.3367 93.1508C50.2211 90.3059 56.7599 86.0207 60.5391 81.5724C60.7103 81.3666 60.8885 81.1751 61.0739 80.9835C63.4698 78.5643 81.5102 59.2101 78.7079 27.2984C78.387 23.6447 76.2978 20.3669 73.1032 18.5294L45.1513 2.47427C41.6715 0.473583 37.386 0.459393 33.8992 2.44589L5.86874 18.3521Z" fill="#F7BC28"/>
<path d="M14.5535 25.6659C12.0507 27.0848 10.4534 29.6885 10.3322 32.5548C9.93287 42.2531 9.56208 62.7425 23.2172 73.1503L34.9257 80.9047C37.5996 82.6713 41.0508 82.7635 43.8175 81.1459C47.4399 79.0388 52.2887 75.8604 55.091 72.5614C55.2194 72.4124 55.3477 72.2635 55.4903 72.1287C57.2658 70.3337 70.593 55.8394 68.5679 32.3136C68.4395 30.7882 64.6318 26.2264 63.334 25.1905L43.6892 13.8888C41.1079 12.406 37.9348 12.3989 35.3464 13.8675L14.5535 25.6659Z" fill="#E48929"/>
<path d="M39.4966 12.7678V47.8366H67.7409C67.7409 47.8366 69.7518 38.0531 68.5752 32.3135C68.5752 32.3135 68.2472 28.3689 63.3413 25.1905L43.6894 13.8888C43.6894 13.8888 41.6928 12.6969 39.4966 12.7678Z" fill="#FBFAF7"/>
<path d="M39.4965 47.8366L39.4894 82.2882C39.4894 82.2882 37.2219 82.4159 34.3767 80.5287L24.9643 74.2996C24.9643 74.2996 16.9852 69.5675 14.3897 61.735C14.3897 61.735 11.1167 54.534 10.6675 47.191L39.4965 47.8366Z" fill="#FBFAF7"/>
</g>
<defs>
<clipPath id="clip0">
<rect width="79" height="93.7485" fill="white" transform="translate(0 0.962402)"/>
</clipPath>
</defs>
</svg>
